<svg width="1024" height="1024" viewBox="0 0 1024 1024" fill="none" xmlns="http://www.w3.org/2000/svg">
<path d="M402.985 118C400.528 135.586 400.404 139.177 399.114 149.766C402.341 150.153 405.566 150.54 408.793 150.928C400.018 156.609 388.33 164.623 379.554 170.305C369.785 185.113 371.672 185.342 375.888 193.152C378.855 198.317 381.824 203.482 384.792 208.647C399.844 213.288 410.818 219.678 414.213 229.565C397.93 227.613 386.078 230.646 386.341 237.701C386.662 242.896 399.023 245.21 404.056 248.309C413.405 257.078 416.473 264.8 416.923 275.664C404.922 275.02 389.257 257.085 380.921 273.728C376.943 281.869 381.341 292.893 391.76 296.583C410.869 301.823 412.663 327.961 412.275 327.961C411.877 327.953 370.299 300.186 372.394 326.116C371.699 337.573 377.027 340.121 381.308 343.456C393.768 348.06 404.398 353.45 402.985 366.698C385.061 360.237 376.558 365.304 374.34 375.608C376.663 382.323 378.984 389.037 381.308 395.753C405.566 390.844 429.827 385.94 454.087 381.031C464.688 371.364 469.463 355.283 468.408 338.033C469.674 312.338 460.45 289.555 493.184 260.943C558.09 206.819 624.051 163.772 697.081 122.771L661.979 163.118L617.484 214.113L616.252 215.525V336.082L572.418 388.4H521.003C518.688 383.103 513.403 379.4 507.252 379.4C498.968 379.4 492.252 386.116 492.252 394.4C492.252 402.685 498.968 409.4 507.252 409.4C514.151 409.4 519.96 404.743 521.711 398.4H577.086L578.585 396.611L625.085 341.111L626.252 339.718V219.274L669.52 169.688L669.524 169.683L699.64 135.066C690.249 160.987 689.892 192.239 722.543 194.706C731.665 194.841 803.611 165.78 847.258 147.785L745.911 206.4H692.422L691.024 207.581L655.524 237.581L653.752 239.079V370.787L643.224 393.28L642.752 394.288V445.931L631.521 463.4H592.397C590.338 457.575 584.783 453.4 578.252 453.4C569.968 453.4 563.252 460.116 563.252 468.4C563.252 476.685 569.968 483.4 578.252 483.4C584.783 483.4 590.338 479.226 592.397 473.4H636.981L638.458 471.104L651.958 450.104L652.752 448.869V396.513L663.28 374.021L663.752 373.013V243.722L696.082 216.4H748.594L749.755 215.729L850.474 157.477C813.705 188.755 788.121 223.416 833.176 241.9H765.67L764.375 242.811L705.375 284.311L703.252 285.805V335.255C697.426 337.314 693.252 342.869 693.252 349.4C693.252 357.685 699.968 364.4 708.252 364.4C714.403 364.4 719.688 360.698 722.003 355.4H740.55L748.569 367.641L749.191 368.59L750.163 369.178L758.58 374.271C729.094 372.682 696.428 390.961 689.839 411.248C726.299 410.976 759.263 408.958 793.974 420.932C794.193 420.975 890.745 440.177 897.33 397.69C845.649 408.807 807.336 403.666 805.587 357.015C806.037 317.009 866.103 294.5 917.253 324.475C922.543 313.628 927.655 302.78 932.946 291.934C914.236 294.25 897.343 297.425 877.98 292.896C913.12 259.533 946.402 226.634 976.997 190.467L935.666 299.392L916.833 337.057L889.146 356.9H859.564C857.653 350.815 851.968 346.4 845.252 346.4C836.968 346.4 830.252 353.116 830.252 361.4C830.252 369.685 836.968 376.4 845.252 376.4C851.595 376.4 857.018 372.464 859.212 366.9H892.358L893.664 365.965L923.664 344.465L924.671 343.743L925.224 342.637L944.837 303.41L944.927 303.174L986.02 194.875C982.198 244.67 989.266 306.522 1000.69 328.35C985.137 322.756 967.832 309.581 959.271 292.323C953.205 311.175 947.142 330.028 941.076 348.88C979.537 427.022 879.525 488.528 796.295 492.789C847.099 520.378 913.591 554.707 913.591 572.786C893.382 580.392 881.331 558.84 865.201 551.867C882.494 596.883 871.811 630.235 862.879 674.669C854.135 685.068 862.87 691.971 866.363 700.621C874.364 703.72 882.364 706.82 890.364 709.919C891.654 711.081 892.945 712.244 894.235 713.406C894.235 713.406 911.131 714.18 915.778 737.811C904.536 724.154 889.202 728.513 889.202 728.513C887.267 729.804 885.331 731.096 883.396 732.387C878.88 729.676 874.363 726.964 869.847 724.253C854.886 714.308 839.664 714.846 823.394 721.928C815.135 726.9 806.613 726.636 798.617 722.703C789.458 712.753 769.599 721.534 769.196 721.54C768.81 721.54 747.905 735.485 747.905 735.485C747.873 735.478 742.872 734.323 742.485 734.323C742.1 734.323 728.919 734.02 711.518 745.169C716.098 721.513 733.148 721.927 733.195 721.928C731.609 716.979 735.261 717.795 736.294 715.729C741.926 709.48 753.842 710.564 762.615 707.982C745.841 707.207 729.066 706.434 712.292 705.657C712.55 704.882 712.807 704.109 713.065 703.334C702.065 702.373 693.419 701.94 687.129 712.244C686.495 694.941 701.042 691.78 710.355 687.837C714.569 681.311 723.758 682.381 732.423 683.19C732.579 683.248 765.052 695.306 774.543 698.902C763.467 694.384 720.475 675.885 720.422 675.862C717.803 671.934 721.194 669.631 721.194 669.243C721.187 668.852 706.889 660.192 696.807 670.019C698.761 649.491 723.063 654.896 723.131 654.911C724.517 648.245 731.138 649.175 734.357 652.199C740.68 658.398 747.002 664.595 753.324 670.794C759.262 674.54 765.196 678.283 771.134 682.027C787.654 689.321 805.22 686.663 819.908 663.046C814.895 650.853 817.21 645.469 828.426 638.253C825.539 630.118 826.579 621.722 829.974 613.85C825 606.515 822.03 586.023 826.879 581.308C815.757 577.379 811.393 566.201 810.618 566.2C800.42 568.297 791.58 564.969 787.392 560.777C771.612 567.747 758.188 563.976 747.905 554.968C729.787 561.15 713.243 556.856 704.55 549.154C690.675 552.56 668.852 542.601 665.062 531.336C657.084 531.336 648.925 522.416 640.287 523.202C633.183 534.893 631.314 533.749 620.545 543.345C609.543 554.812 613.464 574.136 622.095 583.245C635.643 588.411 649.191 593.576 662.739 598.741C693.711 600.529 701.119 618.298 700.679 635.542C688.982 632.033 688.545 630.096 682.869 629.732C674.869 626.891 666.868 624.048 658.868 621.208C633.876 661.552 598.413 689.845 547.767 702.946C557.444 707.51 567.124 705.787 576.801 707.208C580.286 709.275 583.769 711.338 587.254 713.406C602.314 716.573 612.926 721.316 612.803 735.485C602.727 724.249 592.912 724.536 584.931 730.063C568.881 736.8 559.638 722.057 546.992 718.054C536.274 710.324 525.819 713.597 516.41 718.44C505.843 711.51 493.707 715.053 481.57 716.504C466.446 718.008 449.229 721.873 441.697 730.449C436.724 734.378 434.729 728.513 434.342 728.9C416.939 723.264 409.181 738.586 409.181 738.586C405.056 720.889 414.016 717.072 423.503 714.567C417.052 710.823 410.599 707.079 404.147 703.334C403.747 701.123 402.296 700.746 406.084 699.847C398.474 694.969 390.865 698.735 382.47 706.432C383.246 690.292 403.135 680.176 411.503 685.516C417.534 681.054 428.541 680.26 436.666 687.063C445.806 693.981 459.657 694.876 468.797 692.101C464.852 681.183 452.267 674.72 445.181 674.28C435.189 671.848 423.628 668.368 426.987 662.271C420.822 653.488 412.041 656.235 402.213 663.434C405.732 643.459 426.792 645.487 432.405 649.875C434.434 643.725 440.912 642.289 446.343 648.712C454.911 651.01 456.149 656.976 461.055 661.108C470.566 670.851 485.313 675.881 497.442 677.766C508.78 671.254 522.21 670.244 535.38 670.019C537.905 658.951 545.142 656.526 554.734 656.461C554.408 646.595 559.314 642.23 568.672 637.865C568.672 637.865 553.848 636.575 552.8 627.02C527.932 626.893 511.536 623.503 509.442 607.263C486.8 600.131 472.537 583.048 481.57 564.651C470.318 568.056 462.992 568.319 453.311 564.651C437.605 578.442 413.263 595.113 398.342 585.853C391.273 593.187 374.726 601.841 374.34 601.841C372.385 619.343 358.928 640.847 358.854 640.964C352.136 624.057 339.4 605.576 340.273 588.931C317.627 618.386 304.401 627.149 286.465 646.389C271.934 661.333 264.472 678.897 259.365 698.296C270.198 704.51 284.141 703.462 296.528 706.045C299.891 710.447 299.11 708.627 300.4 709.919C313.613 710.179 323.368 717.485 323.239 731.224C311.454 719.04 299.627 726.577 299.627 726.577C289.954 734.614 277.691 730.985 265.947 726.577C255.763 715.698 240.913 709.487 228.396 718.829C213.3 731.136 206.491 712.331 183.104 725.414C166.454 740.571 143.326 741.987 137.036 732.774C137.01 732.764 125.468 728.203 109.165 745.559C113.828 717.303 131.23 719.992 131.23 719.992C130.974 717.023 130.715 714.051 130.457 711.082C128.263 710.306 126.071 709.532 123.877 708.757C112.132 703.569 97.536 704.863 90.9717 710.305C95.4602 691.791 112.645 691.683 125.425 693.648C127.748 691.067 130.069 688.483 132.393 685.901C127.084 683.841 128.255 680.22 129.683 676.604C122.586 669.477 117.302 668.051 108.391 675.442C111.201 657.436 128.259 658.61 140.135 666.53C146.573 662.501 160.526 670.139 169.556 675.442C197.053 684.678 214.187 685.874 241.945 650.262C242.183 633.325 243.199 626.756 258.203 616.561C252.489 606.224 255.585 595.887 269.818 590.994C264.769 586.219 268.672 579.191 272.171 571.825C251.775 570.909 228.902 573.031 212.911 578.596C207.63 594.743 200.798 611.666 189.299 622.37C189.558 580.312 165.339 550.501 135.878 518.94C102.078 496.782 87.1079 452.17 84.3896 437.591C78.1782 453.912 73.9409 456.57 73.9375 456.958C66.4237 465.121 71.5312 483.687 55.9902 484.076C41.5004 501.816 24.0365 491.458 24 491.437C40.5513 489.129 43.3722 482.415 46.4521 471.293C36.0847 468.847 45.1467 460.181 50.3232 456.958C53.5401 456.336 61.6801 435.754 66.9697 436.429C69.1627 416.156 71.3578 395.88 73.5508 375.608C60.2355 370.073 51.3254 361.425 52.2598 346.555C47.3392 340.227 43.9732 331.051 50.7109 327.573C47.7539 319.95 44.2783 311.549 33.29 308.592C58.7629 304.17 61.9564 319.707 68.5176 320.988C76.0032 325.469 81.1567 351.208 90.1973 364.763C83.3274 342.54 86.8198 327.573 93.6807 308.204C93.6999 297.738 89.3139 287.534 78.9707 281.474C100.73 280.957 109.551 303.552 110.325 304.332C124.054 322.216 105.529 334.644 111.487 342.681C115.746 339.453 117.933 332.075 124.263 332.997C129.561 327.198 133.569 320.875 133.167 307.816C146.501 315.427 143.256 326.665 138.973 337.646C139.766 354.075 137.451 358.576 126.586 364.375C115.704 370.856 113.677 376.222 114.973 384.13C128.168 398.241 130.837 441.732 130.845 441.851C144.145 445.861 149 457.342 148.264 466.643C160.828 465.52 172.277 475.257 174.2 484.076C181.626 477.1 192.096 483.594 199.363 491.049C201.926 487.16 207.371 485.357 213.3 487.562C213.286 480.727 217.127 476.458 223.363 470.905C208.339 459.239 204.203 430.418 221.042 414.732C217.674 393.607 224.096 373.682 234.978 371.348C231.46 348.193 245.299 340.849 250.85 335.321C247.222 324.693 258.957 305.232 265.56 305.105C258.953 294.088 271.2 273.991 281.046 272.565C281.046 272.179 274.5 257.153 274.464 257.07C274.464 257.07 242.933 261.806 237.302 290.771C233.425 284.763 229.576 275.707 229.558 275.664C229.52 275.764 216.971 309.355 216.578 308.597C205.702 301.989 210.591 285.736 210.591 285.736C202.7 277.089 204.138 266.109 200.911 256.295C171.362 255.005 141.812 253.713 112.262 252.421C112.262 252.421 121.915 270.253 122.314 270.628C111.799 270.791 60.6148 226.974 50.7109 189.666C76.9634 210.297 104.966 215.766 134.716 221.818C126.845 225.692 118.973 229.566 111.101 233.439C192.68 240.436 277.158 225.307 276.786 224.917C267.673 205.901 237.788 205.935 237.688 205.936V218.72C234.978 216.783 232.268 214.846 229.558 212.909C229.43 216.137 229.301 219.366 229.172 222.594C227.107 221.173 225.043 219.752 222.978 218.332C222.334 221.043 221.686 223.756 221.042 226.467C218.977 225.046 216.913 223.627 214.848 222.206C213.944 224.659 213.042 227.113 212.139 229.565C209.815 227.759 207.494 225.95 205.171 224.144C205.171 224.144 199.363 224.142 198.976 223.368C195.186 203.994 176.909 203.611 176.909 203.611C155.457 200.848 138.713 205.419 119.617 206.323C147.662 171.117 186.192 174.4 222.978 170.685C225.659 155.031 239.41 150.457 255.494 148.216C255.658 148.224 330.982 152.09 331.369 152.09C341.08 139.26 371.242 133.883 371.242 133.883C381.823 128.589 393.569 130.875 402.985 118ZM774.543 698.902C775.763 699.4 776.594 699.732 776.939 699.847C777.552 700.051 776.572 699.671 774.543 698.902ZM578.252 458.4C583.775 458.4 588.252 462.878 588.252 468.4C588.252 473.923 583.775 478.4 578.252 478.4C572.729 478.4 568.252 473.923 568.252 468.4C568.252 462.878 572.729 458.4 578.252 458.4ZM507.252 384.4C512.775 384.4 517.252 388.878 517.252 394.4C517.252 399.923 512.775 404.4 507.252 404.4C501.729 404.4 497.252 399.923 497.252 394.4C497.252 388.878 501.729 384.4 507.252 384.4ZM845.252 351.4C850.775 351.4 855.252 355.878 855.252 361.4C855.252 366.923 850.775 371.4 845.252 371.4C839.729 371.4 835.252 366.923 835.252 361.4C835.252 355.878 839.729 351.4 845.252 351.4ZM820.255 251.9C772.158 274.813 737.372 322.926 763.381 365.489L756.312 361.211L747.435 347.66L745.954 345.4H722.711C721.405 340.67 717.842 336.877 713.252 335.255V290.996L768.835 251.9H820.255ZM708.252 339.4C713.775 339.4 718.252 343.878 718.252 349.4C718.252 354.923 713.775 359.4 708.252 359.4C702.729 359.4 698.252 354.923 698.252 349.4C698.252 343.878 702.729 339.4 708.252 339.4ZM839.652 244.286C839.185 244.432 838.718 244.58 838.252 244.73V243.812C838.713 243.971 839.179 244.13 839.652 244.286ZM253.265 174.358C252.956 174.301 252.639 174.406 252.425 174.636C252.211 174.866 252.129 175.191 252.209 175.495C253.55 180.611 255.404 183.608 257.609 185.05C259.879 186.533 262.297 186.234 264.367 185.311C266.417 184.396 268.245 182.828 269.535 181.532C270.187 180.878 270.715 180.278 271.081 179.841C271.264 179.622 271.408 179.444 271.507 179.318C271.556 179.256 271.594 179.206 271.62 179.172C271.633 179.155 271.644 179.14 271.651 179.131C271.655 179.126 271.657 179.123 271.659 179.12C271.66 179.119 271.661 179.117 271.662 179.116L271.663 179.115L270.927 178.565L271.663 179.114C271.853 178.86 271.898 178.526 271.782 178.23C271.666 177.935 271.406 177.72 271.094 177.662L253.265 174.358Z" fill="#D00000"/>
<path d="M72.7638 874C71.1638 874 70.3638 873.2 70.3638 871.6V748.432C70.3638 746.832 71.1638 746.032 72.7638 746.032H99.9318C101.532 746.032 102.332 746.832 102.332 748.432V794.032H126.044V748.432C126.044 746.832 126.844 746.032 128.444 746.032H155.612C157.212 746.032 158.012 746.832 158.012 748.432V871.6C158.012 873.2 157.212 874 155.612 874H128.444C126.844 874 126.044 873.2 126.044 871.6V819.568H102.332V871.6C102.332 873.2 101.532 874 99.9318 874H72.7638ZM204.989 874C203.517 874 202.237 873.456 201.149 872.368L181.949 853.168C180.861 852.144 180.317 850.864 180.317 849.328V793.072C180.317 791.536 180.861 790.256 181.949 789.232L201.149 770.032C202.237 768.944 203.517 768.4 204.989 768.4H256.349C257.949 768.4 258.749 769.2 258.749 770.8V871.6C258.749 873.2 257.949 874 256.349 874H236.381C235.549 874 234.909 873.84 234.461 873.52C234.077 873.2 233.629 872.816 233.117 872.368L228.317 867.568L223.517 872.368C222.493 873.456 221.213 874 219.677 874H204.989ZM216.221 851.632H222.941C224.989 851.632 226.397 851.216 227.165 850.384C227.933 849.552 228.317 848.08 228.317 845.968V790.768H216.221C214.109 790.768 212.669 791.184 211.901 792.016C211.133 792.848 210.749 794.32 210.749 796.432V845.968C210.749 848.08 211.133 849.552 211.901 850.384C212.669 851.216 214.109 851.632 216.221 851.632ZM312.314 874C311.034 874 309.754 873.584 308.474 872.752L292.826 862.192L282.074 844.912C281.626 844.08 281.242 843.536 280.922 843.28C280.602 842.96 280.442 842.32 280.442 841.36V801.04C280.442 800.08 280.57 799.44 280.826 799.12C281.082 798.8 281.498 798.224 282.074 797.392L291.866 781.072L308.474 769.648C309.05 769.264 309.626 768.976 310.202 768.784C310.778 768.528 311.482 768.4 312.314 768.4H328.922C330.522 768.4 331.322 769.2 331.322 770.8V788.752C331.322 789.264 331.258 789.808 331.13 790.384C331.066 790.96 330.778 791.408 330.266 791.728L319.322 797.2L310.874 808.24V833.872L319.802 844.048L330.266 850.672C330.906 851.056 331.226 851.536 331.226 852.112C331.29 852.624 331.322 853.136 331.322 853.648V871.6C331.322 873.2 330.522 874 328.922 874H312.314ZM403.769 874C402.937 874 402.265 873.872 401.753 873.616C401.305 873.36 401.017 873.008 400.889 872.56L389.849 829.072H380.921V806.032H389.849L400.889 770.032C401.017 769.52 401.305 769.168 401.753 768.976C402.265 768.72 402.937 768.592 403.769 768.592H428.057C429.657 768.592 430.457 769.392 430.457 770.992V781.168C430.457 782.064 430.393 782.768 430.265 783.28C430.137 783.792 429.945 784.336 429.689 784.912L415.481 817.648V820.912L430.457 857.68C430.777 858.384 431.001 859.024 431.129 859.6C431.257 860.112 431.321 860.688 431.321 861.328V871.6C431.321 873.2 430.521 874 428.921 874H403.769ZM352.889 874C351.289 874 350.489 873.2 350.489 871.6V748.432C350.489 746.832 351.289 746.032 352.889 746.032H378.521C380.121 746.032 380.921 746.832 380.921 748.432V871.6C380.921 873.2 380.121 874 378.521 874H352.889ZM515.402 874C513.93 874 512.65 873.584 511.562 872.752L495.914 858.448L480.074 837.808C479.37 836.912 478.922 836.368 478.73 836.176C478.538 835.92 478.442 835.344 478.442 834.448V785.488C478.442 784.592 478.538 784.016 478.73 783.76C478.986 783.504 479.434 782.96 480.074 782.128L494.762 763.12L511.562 747.28C512.266 746.704 512.81 746.352 513.194 746.224C513.642 746.096 514.378 746.032 515.402 746.032H539.114C540.714 746.032 541.514 746.832 541.514 748.432V763.792C541.514 764.304 541.45 764.848 541.322 765.424C541.258 765.936 540.938 766.384 540.362 766.768L522.314 779.152L510.506 794.32V825.712L522.506 840.88L540.362 853.168C540.874 853.488 541.194 853.872 541.322 854.32C541.45 854.768 541.514 855.248 541.514 855.76V871.6C541.514 873.2 540.714 874 539.114 874H515.402ZM587.762 905.968C586.162 905.968 585.362 905.168 585.362 903.568V888.592C585.362 887.376 585.842 886.672 586.802 886.48L600.914 882.928L610.802 877.648C611.762 877.136 612.242 876.144 612.242 874.672V858.928L603.314 867.28C602.226 868.368 600.946 868.912 599.474 868.912L583.154 869.488C581.682 869.488 580.402 868.976 579.314 867.952L561.746 850.288C560.658 849.264 560.114 847.984 560.114 846.448V770.8C560.114 769.2 560.914 768.4 562.514 768.4H588.146C589.746 768.4 590.546 769.2 590.546 770.8V843.088C590.546 845.2 590.93 846.672 591.698 847.504C592.466 848.336 593.874 848.752 595.922 848.752H608.114V770.8C608.114 769.2 608.914 768.4 610.514 768.4H636.146C637.746 768.4 638.546 769.2 638.546 770.8V886.192C638.546 888.112 638.002 889.392 636.914 890.032L624.146 898.192L607.922 904.912C606.962 905.296 606.226 905.552 605.714 905.68C605.266 905.872 604.53 905.968 603.506 905.968H587.762ZM663.389 874C661.789 874 660.989 873.2 660.989 871.6V770.8C660.989 769.2 661.789 768.4 663.389 768.4H707.069C708.541 768.4 709.821 768.944 710.909 770.032L722.717 781.84H726.269L738.077 770.032C739.165 768.944 740.445 768.4 741.917 768.4H762.749C764.221 768.4 765.501 768.944 766.589 770.032L785.789 789.232C786.877 790.256 787.421 791.536 787.421 793.072V871.6C787.421 873.2 786.621 874 785.021 874H759.389C757.789 874 756.989 873.2 756.989 871.6V796.432C756.989 793.744 755.645 792.4 752.957 792.4H739.421V871.6C739.421 873.2 738.621 874 737.021 874H711.389C709.789 874 708.989 873.2 708.989 871.6V796.432C708.989 793.744 707.645 792.4 704.957 792.4H691.421V871.6C691.421 873.2 690.621 874 689.021 874H663.389ZM812.264 874C810.664 874 809.864 873.2 809.864 871.6V770.8C809.864 769.2 810.664 768.4 812.264 768.4H826.856C828.072 768.4 829.128 768.944 830.024 770.032L839.432 780.88L849.896 769.552C850.6 768.784 851.496 768.4 852.584 768.4H862.952C864.552 768.4 865.352 769.2 865.352 770.8V791.44C865.352 792.464 865.288 793.168 865.16 793.552C865.032 793.872 864.68 794.224 864.104 794.608L840.296 812.176V871.6C840.296 873.2 839.496 874 837.896 874H812.264ZM901.473 874C899.937 874 898.657 873.456 897.633 872.368L878.433 853.168C877.345 852.144 876.801 850.864 876.801 849.328V770.8C876.801 769.2 877.601 768.4 879.201 768.4H904.833C906.433 768.4 907.233 769.2 907.233 770.8V845.488C907.233 848.496 908.705 850 911.649 850H924.801V770.8C924.801 769.2 925.601 768.4 927.201 768.4H952.833C954.433 768.4 955.233 769.2 955.233 770.8V871.6C955.233 873.2 954.433 874 952.833 874H901.473Z" fill="#D00000"/>
</svg>
